<svg width="20" height="18" viewBox="0 0 20 18" fill="none" xmlns="http://www.w3.org/2000/svg">
<path d="M9.72222 14.0972C10.9375 14.0972 11.9705 13.6719 12.8212 12.8212C13.6719 11.9705 14.0972 10.9375 14.0972 9.72222C14.0972 8.50694 13.6719 7.47396 12.8212 6.62326C11.9705 5.77257 10.9375 5.34722 9.72222 5.34722C8.50694 5.34722 7.47396 5.77257 6.62326 6.62326C5.77257 7.47396 5.34722 8.50694 5.34722 9.72222C5.34722 10.9375 5.77257 11.9705 6.62326 12.8212C7.47396 13.6719 8.50694 14.0972 9.72222 14.0972ZM9.72222 12.1528C9.04167 12.1528 8.46644 11.9178 7.99653 11.4479C7.52662 10.978 7.29167 10.4028 7.29167 9.72222C7.29167 9.04167 7.52662 8.46644 7.99653 7.99653C8.46644 7.52662 9.04167 7.29167 9.72222 7.29167C10.4028 7.29167 10.978 7.52662 11.4479 7.99653C11.9178 8.46644 12.1528 9.04167 12.1528 9.72222C12.1528 10.4028 11.9178 10.978 11.4479 11.4479C10.978 11.9178 10.4028 12.1528 9.72222 12.1528ZM1.94444 17.5C1.40972 17.5 0.951968 17.3096 0.571181 16.9288C0.190394 16.548 0 16.0903 0 15.5556V3.88889C0 3.35417 0.190394 2.89641 0.571181 2.51562C0.951968 2.13484 1.40972 1.94444 1.94444 1.94444H5.00694L6.80556 0H12.6389L14.4375 1.94444H17.5C18.0347 1.94444 18.4925 2.13484 18.8733 2.51562C19.2541 2.89641 19.4444 3.35417 19.4444 3.88889V15.5556C19.4444 16.0903 19.2541 16.548 18.8733 16.9288C18.4925 17.3096 18.0347 17.5 17.5 17.5H1.94444ZM1.94444 15.5556H17.5V3.88889H13.5625L11.7882 1.94444H7.65625L5.88194 3.88889H1.94444V15.5556Z" fill="#409EB5"/>
</svg>
